<svg width="18" height="18" viewBox="0 0 18 18" fill="none" xmlns="http://www.w3.org/2000/svg">
<path fill-rule="evenodd" clip-rule="evenodd" d="M4.98243 15.6069C5.3458 15.6069 5.64114 15.9022 5.64114 16.2656C5.64114 16.629 5.3458 16.9235 4.98243 16.9235C4.61907 16.9235 4.32458 16.629 4.32458 16.2656C4.32458 15.9022 4.61907 15.6069 4.98243 15.6069Z" stroke="#B0B0B0" stroke-width="1.72211" stroke-linecap="round" stroke-linejoin="round"/>
<path fill-rule="evenodd" clip-rule="evenodd" d="M14.6713 15.6069C15.0346 15.6069 15.33 15.9022 15.33 16.2656C15.33 16.629 15.0346 16.9235 14.6713 16.9235C14.3079 16.9235 14.0126 16.629 14.0126 16.2656C14.0126 15.9022 14.3079 15.6069 14.6713 15.6069Z" stroke="#B0B0B0" stroke-width="1.72211" stroke-linecap="round" stroke-linejoin="round"/>
<path d="M0.959229 1.33896L2.75022 1.64894L3.57942 11.5278C3.64658 12.3329 4.31907 12.9512 5.12674 12.9512H14.5226C15.2941 12.9512 15.9485 12.3846 16.0596 11.62L16.8767 5.97316C16.9774 5.27657 16.4376 4.65316 15.7341 4.65316H3.03782" stroke="#B0B0B0" stroke-width="1.72211" stroke-linecap="round" stroke-linejoin="round"/>
<path d="M10.7542 7.83562H13.1419" stroke="#B0B0B0" stroke-width="1.72211" stroke-linecap="round" stroke-linejoin="round"/>
</svg>
