<svg width="16" height="17" viewBox="0 0 16 17" fill="none" xmlns="http://www.w3.org/2000/svg">
<path d="M2.28977 4.61699C2.28977 3.66222 3.06414 2.88785 4.01814 2.88785H4.80474C5.26034 2.88785 5.69836 2.70745 6.02248 2.38562L6.5721 1.83523C7.24557 1.15871 8.34023 1.15566 9.01675 1.82912L9.02363 1.83523L9.57402 2.38562C9.89737 2.70745 10.3354 2.88785 10.7918 2.88785H11.5776C12.5324 2.88785 13.3067 3.66222 13.3067 4.61699V5.40206C13.3067 5.85919 13.4871 6.29645 13.809 6.62056L14.3593 7.17095C15.0359 7.84442 15.0397 8.93831 14.3662 9.6156L14.3593 9.62248L13.809 10.1729C13.4871 10.4955 13.3067 10.9342 13.3067 11.3898V12.1764C13.3067 13.1312 12.5324 13.9048 11.5776 13.9048H10.7918C10.3354 13.9048 9.89737 14.086 9.57402 14.4078L9.02363 14.9574C8.35093 15.6347 7.25627 15.6378 6.57898 14.9643C6.57669 14.962 6.5744 14.9597 6.5721 14.9574L6.02248 14.4078C5.69836 14.086 5.26034 13.9048 4.80474 13.9048H4.01814C3.06414 13.9048 2.28977 13.1312 2.28977 12.1764V11.3898C2.28977 10.9342 2.1086 10.4955 1.78677 10.1729L1.23715 9.62248C0.559865 8.94902 0.556807 7.85435 1.23027 7.17783L1.23715 7.17095L1.78677 6.62056C2.1086 6.29645 2.28977 5.85919 2.28977 5.40206V4.61699" stroke="#EE5046" stroke-width="1.24781" stroke-linecap="round" stroke-linejoin="round"/>
<path d="M5.83337 10.3607L9.76254 6.43152" stroke="#EE5046" stroke-width="1.24781" stroke-linecap="round" stroke-linejoin="round"/>
<path d="M9.76047 10.937C9.60748 10.937 9.46214 10.8758 9.35505 10.7687C9.30151 10.7152 9.26326 10.6463 9.23266 10.5775C9.20207 10.5086 9.18677 10.4406 9.18677 10.3633C9.18677 10.2868 9.20207 10.2103 9.23266 10.1415C9.26326 10.0726 9.30151 10.0114 9.35505 9.95788C9.56923 9.7437 9.9517 9.7437 10.1659 9.95788C10.2194 10.0114 10.2653 10.0726 10.2959 10.1415C10.3189 10.2103 10.3342 10.2868 10.3342 10.3633C10.3342 10.4406 10.3189 10.5086 10.2959 10.5775C10.2653 10.6463 10.2194 10.7152 10.1659 10.7687C10.0588 10.8758 9.91346 10.937 9.76047 10.937Z" fill="#200E32"/>
<path d="M5.83127 7.00812C5.75478 7.00812 5.68593 6.99206 5.61709 6.96146C5.54824 6.93087 5.4794 6.89338 5.42585 6.83984C5.37231 6.77864 5.33406 6.71745 5.30346 6.64861C5.27287 6.579 5.25757 6.51092 5.25757 6.43442C5.25757 6.35716 5.27287 6.28144 5.30346 6.21259C5.33406 6.14375 5.37231 6.0749 5.42585 6.02901C5.64769 5.81406 6.0225 5.81406 6.23668 6.02901C6.34378 6.13533 6.40497 6.28144 6.40497 6.43442C6.40497 6.51092 6.39732 6.579 6.36672 6.64861C6.33613 6.71745 6.29023 6.77864 6.23668 6.83984C6.18314 6.89338 6.12194 6.93087 6.0531 6.96146C5.98426 6.99206 5.90776 7.00812 5.83127 7.00812Z" fill="#200E32"/>
</svg>
