<svg width="19" height="19" viewBox="0 0 19 19" fill="none" xmlns="http://www.w3.org/2000/svg">
<path d="M6.84799 17.2176V14.4408C6.84799 13.732 7.42683 13.1573 8.14086 13.1573H10.751C11.0939 13.1573 11.4227 13.2925 11.6652 13.5332C11.9076 13.7739 12.0438 14.1004 12.0438 14.4408V17.2176C12.0417 17.5123 12.1581 17.7957 12.3672 18.0048C12.5764 18.2139 12.861 18.3316 13.1578 18.3316H14.9386C15.7702 18.3337 16.5686 18.0072 17.1574 17.4242C17.7463 16.8411 18.0772 16.0494 18.0772 15.2238V7.3131C18.0772 6.64617 17.7794 6.01355 17.2641 5.58567L11.2063 0.782753C10.1526 -0.0593628 8.64276 -0.032173 7.62046 0.84733L1.70093 5.58567C1.16125 6.00094 0.838694 6.63544 0.822754 7.3131V15.2157C0.822754 16.9365 2.22798 18.3316 3.96141 18.3316H5.70149C6.31805 18.3316 6.81913 17.8377 6.8236 17.2257L6.84799 17.2176Z" fill="#EE5046"/>
</svg>
