<svg width="14" height="20" viewBox="0 0 14 20" fill="none" xmlns="http://www.w3.org/2000/svg">
<path d="M7 0C3.13 0 0 3.13 0 7C0 12.25 7 20 7 20C7 20 14 12.25 14 7C14 3.13 10.87 0 7 0ZM7 9.5C5.62 9.5 4.5 8.38 4.5 7C4.5 5.62 5.62 4.5 7 4.5C8.38 4.5 9.5 5.62 9.5 7C9.5 8.38 8.38 9.5 7 9.5Z" fill="#EE5046"/>
<path d="M7 19.2395C6.81789 19.0266 6.57675 18.7397 6.29448 18.3919C5.64467 17.5913 4.77908 16.4706 3.91448 15.1891C3.04892 13.9062 2.19053 12.4713 1.55005 11.0417C0.906636 9.60548 0.5 8.21133 0.5 7C0.5 3.40614 3.40614 0.5 7 0.5C10.5939 0.5 13.5 3.40614 13.5 7C13.5 8.21133 13.0934 9.60548 12.4499 11.0417C11.8095 12.4713 10.9511 13.9062 10.0855 15.1891C9.22092 16.4706 8.35533 17.5913 7.70552 18.3919C7.42325 18.7397 7.18211 19.0266 7 19.2395ZM4 7C4 8.65614 5.34386 10 7 10C8.65614 10 10 8.65614 10 7C10 5.34386 8.65614 4 7 4C5.34386 4 4 5.34386 4 7Z" stroke="#EE5046" stroke-opacity="0.49"/>
</svg>
