<svg width="2" height="3" viewBox="0 0 2 3" fill="none" xmlns="http://www.w3.org/2000/svg">
<path d="M0.83127 2.00812C0.754776 2.00812 0.685932 1.99206 0.617088 1.96146C0.548244 1.93087 0.479399 1.89338 0.425854 1.83984C0.372309 1.77864 0.334062 1.71745 0.303464 1.64861C0.272867 1.579 0.257568 1.51092 0.257568 1.43442C0.257568 1.35716 0.272867 1.28144 0.303464 1.21259C0.334062 1.14375 0.372309 1.0749 0.425854 1.02901C0.647685 0.814061 1.0225 0.814061 1.23668 1.02901C1.34378 1.13533 1.40497 1.28144 1.40497 1.43442C1.40497 1.51092 1.39732 1.579 1.36672 1.64861C1.33613 1.71745 1.29023 1.77864 1.23668 1.83984C1.18314 1.89338 1.12194 1.93087 1.0531 1.96146C0.984256 1.99206 0.907763 2.00812 0.83127 2.00812Z" fill="#200E32"/>
</svg>
