<svg width="16" height="19" viewBox="0 0 16 19" fill="none" xmlns="http://www.w3.org/2000/svg">
<ellipse cx="8.14961" cy="5.26472" rx="4.11415" ry="4.11415" stroke="#B0B0B0" stroke-width="1.72211" stroke-linecap="round" stroke-linejoin="round"/>
<path fill-rule="evenodd" clip-rule="evenodd" d="M1.62373 15.1009C1.62263 14.8116 1.68731 14.526 1.81289 14.2654C2.20696 13.4773 3.31826 13.0595 4.2404 12.8704C4.90544 12.7285 5.57967 12.6337 6.25806 12.5867C7.51406 12.4763 8.77731 12.4763 10.0333 12.5867C10.7116 12.6342 11.3858 12.729 12.051 12.8704C12.9731 13.0595 14.0844 13.4379 14.4785 14.2654C14.731 14.7965 14.731 15.4131 14.4785 15.9442C14.0844 16.7717 12.9731 17.1501 12.051 17.3313C11.3867 17.4791 10.7122 17.5766 10.0333 17.6229C9.01103 17.7096 7.98398 17.7254 6.95952 17.6702C6.72307 17.6702 6.49451 17.6702 6.25806 17.6229C5.58167 17.5772 4.90978 17.4797 4.24828 17.3313C3.31826 17.1501 2.21485 16.7717 1.81289 15.9442C1.68795 15.6806 1.62333 15.3925 1.62373 15.1009Z" stroke="#B0B0B0" stroke-width="1.72211" stroke-linecap="round" stroke-linejoin="round"/>
</svg>
