<svg width="15" height="16" viewBox="0 0 15 16" fill="none" xmlns="http://www.w3.org/2000/svg">
<path fill-rule="evenodd" clip-rule="evenodd" d="M10.3077 0.786377C12.6763 0.786377 14.2675 2.40843 14.2675 4.82229V11.7505C14.2675 14.1854 12.7253 15.769 10.3386 15.7841L4.54273 15.7864C2.17407 15.7864 0.582153 14.1643 0.582153 11.7505V4.82229C0.582153 2.38658 2.12434 0.803705 4.51108 0.789391L10.3069 0.786377H10.3077ZM10.3077 1.91646L4.51485 1.91948C2.76096 1.93002 1.71224 3.01491 1.71224 4.82229V11.7505C1.71224 13.5699 2.77075 14.6563 4.54197 14.6563L10.3348 14.654C12.0887 14.6435 13.1374 13.5571 13.1374 11.7505V4.82229C13.1374 3.00285 12.0796 1.91646 10.3077 1.91646ZM10.1623 10.9373C10.4742 10.9373 10.7274 11.1905 10.7274 11.5024C10.7274 11.8143 10.4742 12.0674 10.1623 12.0674H4.72286C4.41096 12.0674 4.15782 11.8143 4.15782 11.5024C4.15782 11.1905 4.41096 10.9373 4.72286 10.9373H10.1623ZM10.1623 7.78326C10.4742 7.78326 10.7274 8.0364 10.7274 8.34831C10.7274 8.66021 10.4742 8.91335 10.1623 8.91335H4.72286C4.41096 8.91335 4.15782 8.66021 4.15782 8.34831C4.15782 8.0364 4.41096 7.78326 4.72286 7.78326H10.1623ZM6.79823 4.6365C7.11013 4.6365 7.36327 4.88964 7.36327 5.20155C7.36327 5.51345 7.11013 5.76659 6.79823 5.76659H4.72264C4.41073 5.76659 4.15759 5.51345 4.15759 5.20155C4.15759 4.88964 4.41073 4.6365 4.72264 4.6365H6.79823Z" fill="#969696"/>
</svg>
